<svg width="251" height="45" viewBox="0 0 251 45" fill="none" xmlns="http://www.w3.org/2000/svg">
<g filter="url(#filter0_d)">
<path d="M30.4297 5.57812H19.4609V36H14.9844V5.57812H4.03906V1.875H30.4297V5.57812ZM42.9922 36.4688C39.5547 36.4688 36.7578 35.3438 34.6016 33.0938C32.4453 30.8281 31.3672 27.8047 31.3672 24.0234V23.2266C31.3672 20.7109 31.8438 18.4688 32.7969 16.5C33.7656 14.5156 35.1094 12.9688 36.8281 11.8594C38.5625 10.7344 40.4375 10.1719 42.4531 10.1719C45.75 10.1719 48.3125 11.2578 50.1406 13.4297C51.9688 15.6016 52.8828 18.7109 52.8828 22.7578V24.5625H35.7031C35.7656 27.0625 36.4922 29.0859 37.8828 30.6328C39.2891 32.1641 41.0703 32.9297 43.2266 32.9297C44.7578 32.9297 46.0547 32.6172 47.1172 31.9922C48.1797 31.3672 49.1094 30.5391 49.9062 29.5078L52.5547 31.5703C50.4297 34.8359 47.2422 36.4688 42.9922 36.4688ZM42.4531 13.7344C40.7031 13.7344 39.2344 14.375 38.0469 15.6562C36.8594 16.9219 36.125 18.7031 35.8438 21H48.5469V20.6719C48.4219 18.4688 47.8281 16.7656 46.7656 15.5625C45.7031 14.3438 44.2656 13.7344 42.4531 13.7344ZM62.6328 36H58.2969V0H62.6328V36ZM80.1172 36.4688C76.6797 36.4688 73.8828 35.3438 71.7266 33.0938C69.5703 30.8281 68.4922 27.8047 68.4922 24.0234V23.2266C68.4922 20.7109 68.9688 18.4688 69.9219 16.5C70.8906 14.5156 72.2344 12.9688 73.9531 11.8594C75.6875 10.7344 77.5625 10.1719 79.5781 10.1719C82.875 10.1719 85.4375 11.2578 87.2656 13.4297C89.0938 15.6016 90.0078 18.7109 90.0078 22.7578V24.5625H72.8281C72.8906 27.0625 73.6172 29.0859 75.0078 30.6328C76.4141 32.1641 78.1953 32.9297 80.3516 32.9297C81.8828 32.9297 83.1797 32.6172 84.2422 31.9922C85.3047 31.3672 86.2344 30.5391 87.0312 29.5078L89.6797 31.5703C87.5547 34.8359 84.3672 36.4688 80.1172 36.4688ZM79.5781 13.7344C77.8281 13.7344 76.3594 14.375 75.1719 15.6562C73.9844 16.9219 73.25 18.7031 72.9688 21H85.6719V20.6719C85.5469 18.4688 84.9531 16.7656 83.8906 15.5625C82.8281 14.3438 81.3906 13.7344 79.5781 13.7344Z" fill="#4D4BB0"/>
<path d="M114.547 20.9297H100.227V36H95.7266V1.875H116.867V5.57812H100.227V17.25H114.547V20.9297ZM133.227 14.5312C132.57 14.4219 131.859 14.3672 131.094 14.3672C128.25 14.3672 126.32 15.5781 125.305 18V36H120.969V10.6406H125.188L125.258 13.5703C126.68 11.3047 128.695 10.1719 131.305 10.1719C132.148 10.1719 132.789 10.2812 133.227 10.5V14.5312ZM141.945 36H137.609V10.6406H141.945V36ZM137.258 3.91406C137.258 3.21094 137.469 2.61719 137.891 2.13281C138.328 1.64844 138.969 1.40625 139.812 1.40625C140.656 1.40625 141.297 1.64844 141.734 2.13281C142.172 2.61719 142.391 3.21094 142.391 3.91406C142.391 4.61719 142.172 5.20312 141.734 5.67188C141.297 6.14062 140.656 6.375 139.812 6.375C138.969 6.375 138.328 6.14062 137.891 5.67188C137.469 5.20312 137.258 4.61719 137.258 3.91406ZM159.43 36.4688C155.992 36.4688 153.195 35.3438 151.039 33.0938C148.883 30.8281 147.805 27.8047 147.805 24.0234V23.2266C147.805 20.7109 148.281 18.4688 149.234 16.5C150.203 14.5156 151.547 12.9688 153.266 11.8594C155 10.7344 156.875 10.1719 158.891 10.1719C162.188 10.1719 164.75 11.2578 166.578 13.4297C168.406 15.6016 169.32 18.7109 169.32 22.7578V24.5625H152.141C152.203 27.0625 152.93 29.0859 154.32 30.6328C155.727 32.1641 157.508 32.9297 159.664 32.9297C161.195 32.9297 162.492 32.6172 163.555 31.9922C164.617 31.3672 165.547 30.5391 166.344 29.5078L168.992 31.5703C166.867 34.8359 163.68 36.4688 159.43 36.4688ZM158.891 13.7344C157.141 13.7344 155.672 14.375 154.484 15.6562C153.297 16.9219 152.562 18.7031 152.281 21H164.984V20.6719C164.859 18.4688 164.266 16.7656 163.203 15.5625C162.141 14.3438 160.703 13.7344 158.891 13.7344ZM173.305 23.1094C173.305 19.2188 174.227 16.0938 176.07 13.7344C177.914 11.3594 180.328 10.1719 183.312 10.1719C186.281 10.1719 188.633 11.1875 190.367 13.2188V0H194.703V36H190.719L190.508 33.2812C188.773 35.4062 186.359 36.4688 183.266 36.4688C180.328 36.4688 177.93 35.2656 176.07 32.8594C174.227 30.4531 173.305 27.3125 173.305 23.4375V23.1094ZM177.641 23.6016C177.641 26.4766 178.234 28.7266 179.422 30.3516C180.609 31.9766 182.25 32.7891 184.344 32.7891C187.094 32.7891 189.102 31.5547 190.367 29.0859V17.4375C189.07 15.0469 187.078 13.8516 184.391 13.8516C182.266 13.8516 180.609 14.6719 179.422 16.3125C178.234 17.9531 177.641 20.3828 177.641 23.6016ZM211.977 36.4688C208.539 36.4688 205.742 35.3438 203.586 33.0938C201.43 30.8281 200.352 27.8047 200.352 24.0234V23.2266C200.352 20.7109 200.828 18.4688 201.781 16.5C202.75 14.5156 204.094 12.9688 205.812 11.8594C207.547 10.7344 209.422 10.1719 211.438 10.1719C214.734 10.1719 217.297 11.2578 219.125 13.4297C220.953 15.6016 221.867 18.7109 221.867 22.7578V24.5625H204.688C204.75 27.0625 205.477 29.0859 206.867 30.6328C208.273 32.1641 210.055 32.9297 212.211 32.9297C213.742 32.9297 215.039 32.6172 216.102 31.9922C217.164 31.3672 218.094 30.5391 218.891 29.5078L221.539 31.5703C219.414 34.8359 216.227 36.4688 211.977 36.4688ZM211.438 13.7344C209.688 13.7344 208.219 14.375 207.031 15.6562C205.844 16.9219 205.109 18.7031 204.828 21H217.531V20.6719C217.406 18.4688 216.812 16.7656 215.75 15.5625C214.688 14.3438 213.25 13.7344 211.438 13.7344ZM231.008 10.6406L231.148 13.8281C233.086 11.3906 235.617 10.1719 238.742 10.1719C244.102 10.1719 246.805 13.1953 246.852 19.2422V36H242.516V19.2188C242.5 17.3906 242.078 16.0391 241.25 15.1641C240.438 14.2891 239.164 13.8516 237.43 13.8516C236.023 13.8516 234.789 14.2266 233.727 14.9766C232.664 15.7266 231.836 16.7109 231.242 17.9297V36H226.906V10.6406H231.008Z" fill="#36732C"/>
</g>
<defs>
<filter id="filter0_d" x="0.0390625" y="0" width="250.812" height="44.4688" filterUnits="userSpaceOnUse" color-interpolation-filters="sRGB">
<feFlood flood-opacity="0" result="BackgroundImageFix"/>
<feColorMatrix in="SourceAlpha" type="matrix" values="0 0 0 0 0 0 0 0 0 0 0 0 0 0 0 0 0 0 127 0"/>
<feOffset dy="4"/>
<feGaussianBlur stdDeviation="2"/>
<feColorMatrix type="matrix" values="0 0 0 0 0 0 0 0 0 0 0 0 0 0 0 0 0 0 0.25 0"/>
<feBlend mode="normal" in2="BackgroundImageFix" result="effect1_dropShadow"/>
<feBlend mode="normal" in="SourceGraphic" in2="effect1_dropShadow" result="shape"/>
</filter>
</defs>
</svg>
