<svg width="266" height="40" viewBox="0 0 266 40" fill="none" xmlns="http://www.w3.org/2000/svg">
<g filter="url(#filter0_d)">
<path d="M10.668 33V7.656H2.604V3.096H24.348V7.656H15.852V33H10.668ZM38.508 33.528C36.364 33.528 34.444 33.08 32.748 32.184C31.084 31.288 29.772 29.976 28.812 28.248C27.852 26.52 27.372 24.44 27.372 22.008C27.372 19.512 27.836 17.384 28.764 15.624C29.724 13.864 30.988 12.52 32.556 11.592C34.156 10.632 35.932 10.152 37.884 10.152C39.612 10.152 41.196 10.552 42.636 11.352C44.108 12.152 45.276 13.368 46.14 15C47.036 16.6 47.484 18.6 47.484 21C47.484 21.32 47.468 21.704 47.436 22.152C47.436 22.6 47.42 22.984 47.388 23.304H32.604C32.668 24.712 33.004 25.864 33.612 26.76C34.22 27.624 34.972 28.264 35.868 28.68C36.764 29.096 37.724 29.304 38.748 29.304C39.74 29.304 40.684 29.144 41.58 28.824C42.476 28.504 43.308 27.96 44.076 27.192L46.86 29.88C45.772 31.16 44.524 32.088 43.116 32.664C41.708 33.24 40.172 33.528 38.508 33.528ZM32.7 19.224H42.204C42.204 17.656 41.804 16.456 41.004 15.624C40.204 14.792 39.084 14.376 37.644 14.376C36.396 14.376 35.308 14.776 34.38 15.576C33.452 16.344 32.892 17.56 32.7 19.224ZM52.524 33V28.728H58.812V5.064H52.812V0.792H64.284V28.728H70.524V33H52.524ZM86.508 33.528C84.364 33.528 82.444 33.08 80.748 32.184C79.084 31.288 77.772 29.976 76.812 28.248C75.852 26.52 75.372 24.44 75.372 22.008C75.372 19.512 75.836 17.384 76.764 15.624C77.724 13.864 78.988 12.52 80.556 11.592C82.156 10.632 83.932 10.152 85.884 10.152C87.612 10.152 89.196 10.552 90.636 11.352C92.108 12.152 93.276 13.368 94.14 15C95.036 16.6 95.484 18.6 95.484 21C95.484 21.32 95.468 21.704 95.436 22.152C95.436 22.6 95.42 22.984 95.388 23.304H80.604C80.668 24.712 81.004 25.864 81.612 26.76C82.22 27.624 82.972 28.264 83.868 28.68C84.764 29.096 85.724 29.304 86.748 29.304C87.74 29.304 88.684 29.144 89.58 28.824C90.476 28.504 91.308 27.96 92.076 27.192L94.86 29.88C93.772 31.16 92.524 32.088 91.116 32.664C89.708 33.24 88.172 33.528 86.508 33.528ZM80.7 19.224H90.204C90.204 17.656 89.804 16.456 89.004 15.624C88.204 14.792 87.084 14.376 85.644 14.376C84.396 14.376 83.308 14.776 82.38 15.576C81.452 16.344 80.892 17.56 80.7 19.224Z" fill="#514F99"/>
<path d="M100.668 33V3.096H119.292V7.464H105.516V14.712H116.7V19.08H105.516V33H100.668ZM125.772 10.68H131.388L131.34 14.28C131.948 13 132.844 11.992 134.028 11.256C135.212 10.52 136.46 10.152 137.772 10.152C140.268 10.152 142.332 11 143.964 12.696L141.66 17.256L141.516 17.64L141.084 17.448C140.988 17.192 140.892 16.936 140.796 16.68C140.7 16.392 140.46 16.072 140.076 15.72C139.628 15.368 139.148 15.096 138.636 14.904C138.156 14.712 137.628 14.616 137.052 14.616C135.516 14.616 134.172 15.144 133.02 16.2C131.868 17.256 131.292 18.952 131.292 21.288V33H125.772V10.68ZM149.532 33V28.728H155.004V14.952H149.82V10.68H160.476V28.728H165.468V33H149.532ZM157.5 6.984C156.54 6.984 155.724 6.664 155.052 6.024C154.412 5.384 154.092 4.616 154.092 3.72C154.092 2.792 154.412 2.024 155.052 1.416C155.692 0.775998 156.508 0.455998 157.5 0.455998C158.396 0.455998 159.18 0.775998 159.852 1.416C160.556 2.056 160.908 2.824 160.908 3.72C160.908 4.616 160.556 5.384 159.852 6.024C159.18 6.664 158.396 6.984 157.5 6.984ZM182.508 33.528C180.364 33.528 178.444 33.08 176.748 32.184C175.084 31.288 173.772 29.976 172.812 28.248C171.852 26.52 171.372 24.44 171.372 22.008C171.372 19.512 171.836 17.384 172.764 15.624C173.724 13.864 174.988 12.52 176.556 11.592C178.156 10.632 179.932 10.152 181.884 10.152C183.612 10.152 185.196 10.552 186.636 11.352C188.108 12.152 189.276 13.368 190.14 15C191.036 16.6 191.484 18.6 191.484 21C191.484 21.32 191.468 21.704 191.436 22.152C191.436 22.6 191.42 22.984 191.388 23.304H176.604C176.668 24.712 177.004 25.864 177.612 26.76C178.22 27.624 178.972 28.264 179.868 28.68C180.764 29.096 181.724 29.304 182.748 29.304C183.74 29.304 184.684 29.144 185.58 28.824C186.476 28.504 187.308 27.96 188.076 27.192L190.86 29.88C189.772 31.16 188.524 32.088 187.116 32.664C185.708 33.24 184.172 33.528 182.508 33.528ZM176.7 19.224H186.204C186.204 17.656 185.804 16.456 185.004 15.624C184.204 14.792 183.084 14.376 181.644 14.376C180.396 14.376 179.308 14.776 178.38 15.576C177.452 16.344 176.892 17.56 176.7 19.224ZM204.348 33.528C202.684 33.528 201.148 33.096 199.74 32.232C198.364 31.368 197.244 30.056 196.38 28.296C195.516 26.536 195.084 24.344 195.084 21.72C195.084 19.128 195.5 16.984 196.332 15.288C197.164 13.56 198.284 12.264 199.692 11.4C201.1 10.536 202.668 10.104 204.396 10.104C205.516 10.104 206.556 10.312 207.516 10.728C208.476 11.144 209.228 11.816 209.772 12.744V0.792H215.58V1.224C215.388 1.416 215.26 1.64 215.196 1.896C215.164 2.12 215.148 2.488 215.148 3L215.1 30.024C215.1 30.536 215.132 31.032 215.196 31.512C215.26 31.992 215.404 32.488 215.628 33H210.3C210.044 32.488 209.9 32.088 209.868 31.8C209.836 31.48 209.82 31.064 209.82 30.552C209.212 31.576 208.428 32.328 207.468 32.808C206.508 33.288 205.468 33.528 204.348 33.528ZM205.26 29.16C208.204 29.16 209.676 26.696 209.676 21.768C209.676 16.808 208.156 14.328 205.116 14.328C203.58 14.328 202.412 14.984 201.612 16.296C200.812 17.608 200.412 19.384 200.412 21.624C200.412 23.992 200.876 25.848 201.804 27.192C202.764 28.504 203.916 29.16 205.26 29.16ZM230.508 33.528C228.364 33.528 226.444 33.08 224.748 32.184C223.084 31.288 221.772 29.976 220.812 28.248C219.852 26.52 219.372 24.44 219.372 22.008C219.372 19.512 219.836 17.384 220.764 15.624C221.724 13.864 222.988 12.52 224.556 11.592C226.156 10.632 227.932 10.152 229.884 10.152C231.612 10.152 233.196 10.552 234.636 11.352C236.108 12.152 237.276 13.368 238.14 15C239.036 16.6 239.484 18.6 239.484 21C239.484 21.32 239.468 21.704 239.436 22.152C239.436 22.6 239.42 22.984 239.388 23.304H224.604C224.668 24.712 225.004 25.864 225.612 26.76C226.22 27.624 226.972 28.264 227.868 28.68C228.764 29.096 229.724 29.304 230.748 29.304C231.74 29.304 232.684 29.144 233.58 28.824C234.476 28.504 235.308 27.96 236.076 27.192L238.86 29.88C237.772 31.16 236.524 32.088 235.116 32.664C233.708 33.24 232.172 33.528 230.508 33.528ZM224.7 19.224H234.204C234.204 17.656 233.804 16.456 233.004 15.624C232.204 14.792 231.084 14.376 229.644 14.376C228.396 14.376 227.308 14.776 226.38 15.576C225.452 16.344 224.892 17.56 224.7 19.224ZM244.14 33V10.68H249.564V13.752C250.364 12.664 251.292 11.8 252.348 11.16C253.404 10.488 254.62 10.152 255.996 10.152C257.276 10.152 258.46 10.472 259.548 11.112C260.668 11.72 261.564 12.712 262.236 14.088C262.908 15.464 263.244 17.272 263.244 19.512V33H257.82V19.608C257.82 17.784 257.532 16.456 256.956 15.624C256.38 14.76 255.58 14.328 254.556 14.328C253.756 14.328 252.972 14.552 252.204 15C251.436 15.416 250.796 16.024 250.284 16.824C249.804 17.624 249.564 18.584 249.564 19.704V33H244.14Z" fill="#36732C"/>
</g>
<defs>
<filter id="filter0_d" x="0.604004" y="0.455997" width="264.64" height="39.072" filterUnits="userSpaceOnUse" color-interpolation-filters="sRGB">
<feFlood flood-opacity="0" result="BackgroundImageFix"/>
<feColorMatrix in="SourceAlpha" type="matrix" values="0 0 0 0 0 0 0 0 0 0 0 0 0 0 0 0 0 0 127 0"/>
<feOffset dy="4"/>
<feGaussianBlur stdDeviation="1"/>
<feColorMatrix type="matrix" values="0 0 0 0 0 0 0 0 0 0 0 0 0 0 0 0 0 0 0.1 0"/>
<feBlend mode="normal" in2="BackgroundImageFix" result="effect1_dropShadow"/>
<feBlend mode="normal" in="SourceGraphic" in2="effect1_dropShadow" result="shape"/>
</filter>
</defs>
</svg>
